<?xml version="1.0" encoding="UTF-8" standalone="no"?>
<!-- Created with Inkscape (http://www.inkscape.org/) -->

<svg
   xmlns:dc="http://purl.org/dc/elements/1.1/"
   xmlns:cc="http://creativecommons.org/ns#"
   xmlns:rdf="http://www.w3.org/1999/02/22-rdf-syntax-ns#"
   xmlns:svg="http://www.w3.org/2000/svg"
   xmlns="http://www.w3.org/2000/svg"
   xmlns:sodipodi="http://sodipodi.sourceforge.net/DTD/sodipodi-0.dtd"
   xmlns:inkscape="http://www.inkscape.org/namespaces/inkscape"
   width="121.66171mm"
   height="30.553158mm"
   viewBox="0 0 459.82381 115.4765"
   id="svg2"
   version="1.1"
   inkscape:version="0.92.2 (5c3e80d, 2017-08-06)"
   sodipodi:docname="ReutechLogo.svg">
  <defs
     id="defs4" />
  <sodipodi:namedview
     id="base"
     pagecolor="#ffffff"
     bordercolor="#666666"
     borderopacity="1.0"
     inkscape:pageopacity="0"
     inkscape:pageshadow="2"
     inkscape:zoom="0.49497475"
     inkscape:cx="-58.801713"
     inkscape:cy="100.63562"
     inkscape:document-units="px"
     inkscape:current-layer="layer2"
     showgrid="false"
     showguides="true"
     inkscape:guide-bbox="true"
     inkscape:snap-text-baseline="true"
     inkscape:window-width="1920"
     inkscape:window-height="1017"
     inkscape:window-x="1912"
     inkscape:window-y="-8"
     inkscape:window-maximized="1"
     fit-margin-top="1"
     fit-margin-left="1"
     fit-margin-bottom="1"
     fit-margin-right="1" />
  <metadata
     id="metadata7">
    <rdf:RDF>
      <cc:Work
         rdf:about="">
        <dc:format>image/svg+xml</dc:format>
        <dc:type
           rdf:resource="http://purl.org/dc/dcmitype/StillImage" />
        <dc:title></dc:title>
      </cc:Work>
    </rdf:RDF>
  </metadata>
  <g
     inkscape:groupmode="layer"
     id="layer2"
     inkscape:label="Layer 2"
     transform="translate(-69.630677,-596.83525)">
    <g
       aria-label="REUTECH"
       transform="scale(0.96968841,1.0312591)"
       style="font-style:normal;font-variant:normal;font-weight:bold;font-stretch:normal;line-height:0%;font-family:arial;-inkscape-font-specification:'arial Bold';text-align:end;letter-spacing:4.89716816px;text-anchor:end;opacity:1;fill:#000000;fill-opacity:1;stroke:none;stroke-width:0.63779527;stroke-linecap:round;stroke-linejoin:round;stroke-miterlimit:4;stroke-dasharray:none;stroke-dashoffset:0;stroke-opacity:1"
       id="text4148">
      <path
         d="m 75.704942,650.31201 v -66.76428 h 28.372538 q 10.70233,0 15.52976,1.82167 4.87297,1.77613 7.78765,6.37586 2.91467,4.59972 2.91467,10.52015 0,7.5144 -4.41755,12.43291 -4.41756,4.87298 -13.20713,6.14815 4.37202,2.55034 7.19561,5.60164 2.86913,3.0513 7.69656,10.83895 l 8.15198,13.02495 h -16.12179 l -9.74595,-14.52783 q -5.19176,-7.78765 -7.10452,-9.79149 -1.91275,-2.04938 -4.053219,-2.77805 -2.140465,-0.77421 -6.785728,-0.77421 h -2.732508 v 27.87158 z m 13.480373,-38.52836 h 9.973654 q 9.700401,0 12.114121,-0.81975 2.41371,-0.81976 3.77997,-2.8236 1.36625,-2.00383 1.36625,-5.00959 0,-3.3701 -1.82167,-5.41948 -1.77613,-2.09492 -5.05514,-2.64142 -1.63951,-0.22771 -9.837029,-0.22771 H 89.185315 Z"
         style="font-size:93.26960754px;line-height:1.25;fill:#000000;fill-opacity:1"
         id="path4524" />
      <path
         d="m 147.95843,650.31201 v -66.76428 h 49.50394 v 11.29437 h -36.02356 v 14.80108 h 33.51876 v 11.24883 h -33.51876 v 18.17118 h 37.29873 v 11.24882 z"
         style="font-size:93.26960754px;line-height:1.25;fill:#000000;fill-opacity:1"
         id="path4526" />
      <path
         d="m 215.06569,583.54773 h 13.48037 v 36.16019 q 0,8.6074 0.50096,11.15774 0.8653,4.09876 4.09877,6.60356 3.27901,2.45926 8.92619,2.45926 5.73827,0 8.65294,-2.32263 2.91468,-2.36817 3.50672,-5.78381 0.59204,-3.41563 0.59204,-11.33991 v -36.9344 h 13.48038 v 35.06719 q 0,12.02303 -1.09301,16.98709 -1.093,4.96406 -4.05322,8.37969 -2.91467,3.41564 -7.83319,5.46502 -4.91851,2.00384 -12.84278,2.00384 -9.56378,0 -14.52784,-2.18601 -4.91851,-2.23155 -7.78765,-5.73827 -2.86913,-3.55226 -3.77997,-7.42331 -1.32071,-5.73827 -1.32071,-16.94155 z"
         style="font-size:93.26960754px;line-height:1.25;fill:#000000;fill-opacity:1"
         id="path4528" />
      <path
         d="M 302.48461,650.31201 V 594.8421 h -19.81068 v -11.29437 h 53.0562 v 11.29437 h -19.76515 v 55.46991 z"
         style="font-size:93.26960754px;line-height:1.25;fill:#000000;fill-opacity:1"
         id="path4530" />
      <path
         d="m 349.18915,650.31201 v -66.76428 h 49.50394 v 11.29437 h -36.02356 v 14.80108 h 33.51876 v 11.24883 h -33.51876 v 18.17118 h 37.29873 v 11.24882 z"
         style="font-size:93.26960754px;line-height:1.25;fill:#000000;fill-opacity:1"
         id="path4532" />
      <path
         d="m 459.1057,625.76498 13.07049,4.14431 q -3.00575,10.93003 -10.01919,16.25842 -6.9679,5.28285 -17.71576,5.28285 -13.29821,0 -21.86007,-9.06282 -8.56186,-9.10836 -8.56186,-24.86582 0,-16.6683 8.6074,-25.86775 8.60741,-9.24498 22.63428,-9.24498 12.25074,0 19.90177,7.24114 4.55418,4.28093 6.83127,12.29629 l -13.34375,3.18793 q -1.18409,-5.19177 -4.96406,-8.19753 -3.73442,-3.00576 -9.10836,-3.00576 -7.42331,0 -12.06857,5.32839 -4.59973,5.32839 -4.59973,17.26035 0,12.66062 4.55418,18.03455 4.55418,5.37393 11.84087,5.37393 5.37393,0 9.24499,-3.41563 3.87105,-3.41564 5.5561,-10.74787 z"
         style="font-size:93.26960754px;line-height:1.25;fill:#000000;fill-opacity:1"
         id="path4534" />
      <path
         d="m 488.73207,650.31201 v -66.76428 h 13.48037 v 26.27762 h 26.41425 v -26.27762 h 13.48037 v 66.76428 h -13.48037 v -29.19229 h -26.41425 v 29.19229 z"
         style="font-size:93.26960754px;line-height:1.25;fill:#000000;fill-opacity:1"
         id="path4536" />
    </g>
    <g
       aria-label="RADAR SYSTEMS"
       transform="scale(0.93144613,1.0735994)"
       style="font-style:normal;font-variant:normal;font-weight:bold;font-stretch:normal;line-height:0%;font-family:arial;-inkscape-font-specification:'arial Bold';text-align:end;letter-spacing:12.47132874px;text-anchor:end;opacity:1;fill:#000000;fill-opacity:1;stroke:none;stroke-width:0.63779527;stroke-linecap:round;stroke-linejoin:round;stroke-miterlimit:4;stroke-dasharray:none;stroke-dashoffset:0;stroke-opacity:1"
       id="text4152">
      <path
         d="m 219.57154,659.67151 v -16.24353 h 6.90294 q 2.60384,0 3.77834,0.44321 1.18558,0.43212 1.89471,1.55122 0.70913,1.1191 0.70913,2.55952 0,1.82823 -1.07478,3.02489 -1.07477,1.18557 -3.21324,1.49582 1.06369,0.62049 1.75066,1.36286 0.69805,0.74237 1.87255,2.63708 l 1.98335,3.16893 h -3.92238 l -2.37116,-3.53458 q -1.26313,-1.8947 -1.7285,-2.38223 -0.46537,-0.49861 -0.98614,-0.67589 -0.52076,-0.18837 -1.65094,-0.18837 h -0.66481 v 6.78107 z m 3.27973,-9.37383 h 2.42655 q 2.36008,0 2.94733,-0.19944 0.58725,-0.19944 0.91965,-0.68697 0.33241,-0.48753 0.33241,-1.21882 0,-0.81993 -0.44321,-1.31854 -0.43212,-0.50969 -1.2299,-0.64265 -0.39888,-0.0554 -2.39331,-0.0554 h -2.55952 z"
         style="font-size:22.69218826px;line-height:1.25;fill:#000000;fill-opacity:1"
         id="path4499" />
      <path
         d="m 263.07842,659.67151 h -3.56781 l -1.41826,-3.6897 h -6.49298 l -1.3407,3.6897 h -3.47918 l 6.32678,-16.24353 h 3.46809 z m -6.03869,-6.4265 -2.2382,-6.02761 -2.19387,6.02761 z"
         style="font-size:22.69218826px;line-height:1.25;fill:#000000;fill-opacity:1"
         id="path4501" />
      <path
         d="m 277.33366,643.42798 h 5.99437 q 2.02767,0 3.09137,0.31024 1.42934,0.42105 2.44871,1.49583 1.01938,1.07477 1.55123,2.63708 0.53184,1.55122 0.53184,3.83374 0,2.00551 -0.4986,3.45701 -0.60941,1.77283 -1.73959,2.86976 -0.85317,0.83102 -2.30467,1.29638 -1.08586,0.34349 -2.90301,0.34349 h -6.17165 z m 3.27973,2.74788 v 10.75885 h 2.44871 q 1.37394,0 1.98335,-0.15513 0.79778,-0.19944 1.31854,-0.67589 0.53185,-0.47644 0.86426,-1.5623 0.3324,-1.09694 0.3324,-2.98057 0,-1.88362 -0.3324,-2.89192 -0.33241,-1.0083 -0.93074,-1.57338 -0.59833,-0.56509 -1.51798,-0.76454 -0.68697,-0.15512 -2.69248,-0.15512 z"
         style="font-size:22.69218826px;line-height:1.25;fill:#000000;fill-opacity:1"
         id="path4503" />
      <path
         d="m 320.8627,659.67151 h -3.56781 l -1.41827,-3.6897 h -6.49298 l -1.3407,3.6897 h -3.47917 l 6.32678,-16.24353 h 3.46809 z m -6.03869,-6.4265 -2.2382,-6.02761 -2.19387,6.02761 z"
         style="font-size:22.69218826px;line-height:1.25;fill:#000000;fill-opacity:1"
         id="path4505" />
      <path
         d="m 335.1401,659.67151 v -16.24353 h 6.90294 q 2.60384,0 3.77834,0.44321 1.18558,0.43212 1.89471,1.55122 0.70913,1.1191 0.70913,2.55952 0,1.82823 -1.07478,3.02489 -1.07477,1.18557 -3.21325,1.49582 1.0637,0.62049 1.75067,1.36286 0.69805,0.74237 1.87255,2.63708 l 1.98335,3.16893 h -3.92238 l -2.37116,-3.53458 q -1.26314,-1.8947 -1.7285,-2.38223 -0.46537,-0.49861 -0.98614,-0.67589 -0.52077,-0.18837 -1.65094,-0.18837 h -0.66481 v 6.78107 z m 3.27973,-9.37383 h 2.42655 q 2.36008,0 2.94733,-0.19944 0.58725,-0.19944 0.91965,-0.68697 0.33241,-0.48753 0.33241,-1.21882 0,-0.81993 -0.44321,-1.31854 -0.43213,-0.50969 -1.2299,-0.64265 -0.39888,-0.0554 -2.39332,-0.0554 h -2.55951 z"
         style="font-size:22.69218826px;line-height:1.25;fill:#000000;fill-opacity:1"
         id="path4507" />
      <path
         d="m 381.93284,654.38627 3.19109,-0.31025 q 0.28809,1.60663 1.16342,2.36008 0.88641,0.75345 2.38224,0.75345 1.58446,0 2.38223,-0.66481 0.80886,-0.67589 0.80886,-1.57338 0,-0.57617 -0.34349,-0.97506 -0.3324,-0.40996 -1.1745,-0.70913 -0.57617,-0.19944 -2.626,-0.70913 -2.63708,-0.65373 -3.70077,-1.60663 -1.49583,-1.3407 -1.49583,-3.26865 0,-1.24097 0.69805,-2.31575 0.70913,-1.08586 2.02767,-1.65095 1.32963,-0.56508 3.20217,-0.56508 3.05813,0 4.59827,1.3407 1.55123,1.3407 1.62879,3.57889 l -3.27973,0.14404 q -0.21052,-1.25206 -0.90857,-1.79498 -0.68698,-0.55401 -2.072,-0.55401 -1.42934,0 -2.23819,0.58725 -0.52077,0.37672 -0.52077,1.00829 0,0.57617 0.48753,0.98614 0.62049,0.52076 3.0138,1.08585 2.39332,0.56509 3.53458,1.1745 1.15234,0.59833 1.79499,1.65095 0.65373,1.04153 0.65373,2.58168 0,1.3961 -0.77562,2.61492 -0.77561,1.21882 -2.19387,1.81714 -1.41826,0.58725 -3.53457,0.58725 -3.08029,0 -4.73124,-1.41826 -1.65094,-1.42934 -1.97227,-4.15506 z"
         style="font-size:22.69218826px;line-height:1.25;fill:#000000;fill-opacity:1"
         id="path4509" />
      <path
         d="m 414.65874,659.67151 v -6.83647 l -5.95006,-9.40706 h 3.84482 l 3.82266,6.4265 3.7451,-6.4265 h 3.77834 l -5.97221,9.42922 v 6.81431 z"
         style="font-size:22.69218826px;line-height:1.25;fill:#000000;fill-opacity:1"
         id="path4511" />
      <path
         d="m 437.19085,654.38627 3.19109,-0.31025 q 0.28809,1.60663 1.16342,2.36008 0.88642,0.75345 2.38224,0.75345 1.58446,0 2.38223,-0.66481 0.80886,-0.67589 0.80886,-1.57338 0,-0.57617 -0.34349,-0.97506 -0.3324,-0.40996 -1.1745,-0.70913 -0.57616,-0.19944 -2.626,-0.70913 -2.63708,-0.65373 -3.70077,-1.60663 -1.49583,-1.3407 -1.49583,-3.26865 0,-1.24097 0.69805,-2.31575 0.70914,-1.08586 2.02768,-1.65095 1.32962,-0.56508 3.20216,-0.56508 3.05813,0 4.59828,1.3407 1.55122,1.3407 1.62878,3.57889 l -3.27973,0.14404 q -0.21052,-1.25206 -0.90857,-1.79498 -0.68697,-0.55401 -2.072,-0.55401 -1.42934,0 -2.23819,0.58725 -0.52077,0.37672 -0.52077,1.00829 0,0.57617 0.48753,0.98614 0.62049,0.52076 3.01381,1.08585 2.39331,0.56509 3.53457,1.1745 1.15234,0.59833 1.79499,1.65095 0.65373,1.04153 0.65373,2.58168 0,1.3961 -0.77561,2.61492 -0.77562,1.21882 -2.19388,1.81714 -1.41826,0.58725 -3.53457,0.58725 -3.08029,0 -4.73123,-1.41826 -1.65095,-1.42934 -1.97228,-4.15506 z"
         style="font-size:22.69218826px;line-height:1.25;fill:#000000;fill-opacity:1"
         id="path4513" />
      <path
         d="m 469.30732,659.67151 v -13.49565 h -4.81987 v -2.74788 h 12.9084 v 2.74788 h -4.8088 v 13.49565 z"
         style="font-size:22.69218826px;line-height:1.25;fill:#000000;fill-opacity:1"
         id="path4515" />
      <path
         d="m 491.95026,659.67151 v -16.24353 h 12.04414 v 2.74788 h -8.76441 v 3.60106 h 8.155 v 2.7368 h -8.155 v 4.42099 h 9.07466 v 2.7368 z"
         style="font-size:22.69218826px;line-height:1.25;fill:#000000;fill-opacity:1"
         id="path4517" />
      <path
         d="m 519.53494,659.67151 v -16.24353 h 4.90851 l 2.94733,11.08017 2.91408,-11.08017 h 4.9196 v 16.24353 h -3.04705 v -12.78652 l -3.22433,12.78652 h -3.15785 l -3.21325,-12.78652 v 12.78652 z"
         style="font-size:22.69218826px;line-height:1.25;fill:#000000;fill-opacity:1"
         id="path4519" />
      <path
         d="m 550.14448,654.38627 3.19109,-0.31025 q 0.28809,1.60663 1.16342,2.36008 0.88641,0.75345 2.38224,0.75345 1.58446,0 2.38223,-0.66481 0.80886,-0.67589 0.80886,-1.57338 0,-0.57617 -0.34349,-0.97506 -0.3324,-0.40996 -1.1745,-0.70913 -0.57617,-0.19944 -2.626,-0.70913 -2.63708,-0.65373 -3.70077,-1.60663 -1.49583,-1.3407 -1.49583,-3.26865 0,-1.24097 0.69805,-2.31575 0.70913,-1.08586 2.02767,-1.65095 1.32962,-0.56508 3.20217,-0.56508 3.05813,0 4.59827,1.3407 1.55123,1.3407 1.62879,3.57889 l -3.27973,0.14404 q -0.21052,-1.25206 -0.90858,-1.79498 -0.68697,-0.55401 -2.07199,-0.55401 -1.42934,0 -2.23819,0.58725 -0.52077,0.37672 -0.52077,1.00829 0,0.57617 0.48753,0.98614 0.62049,0.52076 3.0138,1.08585 2.39332,0.56509 3.53458,1.1745 1.15234,0.59833 1.79499,1.65095 0.65373,1.04153 0.65373,2.58168 0,1.3961 -0.77562,2.61492 -0.77561,1.21882 -2.19387,1.81714 -1.41826,0.58725 -3.53457,0.58725 -3.08029,0 -4.73124,-1.41826 -1.65094,-1.42934 -1.97227,-4.15506 z"
         style="font-size:22.69218826px;line-height:1.25;fill:#000000;fill-opacity:1"
         id="path4521" />
    </g>
  </g>
</svg>
